<?xml version="1.0" standalone="no"?>
<!DOCTYPE svg PUBLIC "-//W3C//DTD SVG 20010904//EN"
 "http://www.w3.org/TR/2001/REC-SVG-20010904/DTD/svg10.dtd">
<svg version="1.0" xmlns="http://www.w3.org/2000/svg"
 width="512.000000pt" height="512.000000pt" viewBox="0 0 512.000000 512.000000"
 preserveAspectRatio="xMidYMid meet">

<g transform="translate(0.000000,512.000000) scale(0.100000,-0.100000)"
fill="#000000" stroke="none">
<path d="M2257 4275 c-124 -15 -157 -25 -203 -60 -31 -24 -37 -25 -76 -14 -23
6 -60 8 -81 5 -140 -23 -560 -196 -639 -264 -29 -24 -24 -86 8 -111 15 -12 36
-21 46 -21 11 0 79 29 151 64 135 66 266 118 395 156 118 36 96 95 256 -658
112 -528 136 -654 127 -671 -7 -12 -13 -21 -14 -21 -1 0 -56 -16 -121 -35 -80
-24 -123 -32 -135 -26 -9 5 -187 244 -395 530 -208 287 -394 534 -412 551 -53
46 -128 61 -195 39 -129 -44 -546 -489 -630 -673 -31 -69 -21 -147 27 -213 30
-39 -5 -19 1114 -663 509 -293 929 -536 933 -540 5 -4 -102 -108 -237 -230
-143 -129 -249 -232 -252 -245 -9 -36 3 -60 54 -111 103 -103 267 -188 421
-220 101 -20 281 -15 376 11 116 31 255 107 338 185 78 73 94 101 82 139 -9
28 -333 320 -364 328 -55 14 -110 -39 -97 -93 4 -13 62 -74 136 -141 72 -65
130 -120 130 -123 0 -15 -145 -98 -215 -124 -65 -23 -102 -30 -193 -34 -125
-5 -207 9 -309 54 -54 24 -163 93 -163 104 0 3 110 104 244 224 l244 219 448
259 c247 143 719 415 1049 605 420 241 611 356 636 383 59 64 74 150 40 226
-39 86 -200 291 -346 441 -85 87 -106 103 -132 103 -46 0 -83 -34 -83 -77 0
-32 11 -48 103 -142 158 -163 317 -368 317 -409 0 -12 -14 -31 -32 -45 -68
-50 -1011 -587 -1031 -587 -27 0 -249 154 -258 178 -3 9 -4 23 -1 31 3 8 169
240 370 515 200 276 371 517 379 536 33 75 11 182 -49 237 -71 67 -357 213
-559 286 -190 69 -250 82 -311 68 -46 -10 -52 -9 -81 13 -48 37 -78 45 -216
61 -152 18 -445 18 -594 0z m582 -159 c95 -11 118 -17 132 -35 9 -11 15 -29
13 -38 -2 -10 -65 -306 -139 -657 -75 -352 -140 -645 -146 -653 -16 -19 -262
-19 -278 0 -6 8 -72 301 -146 653 -75 351 -138 646 -141 655 -2 9 4 26 14 39
16 19 35 25 123 35 140 17 428 17 568 1z m512 -115 c228 -77 527 -228 565
-286 15 -23 15 -27 -1 -52 -66 -103 -758 -1042 -770 -1047 -9 -3 -69 10 -133
29 -106 32 -142 52 -142 78 0 5 61 298 136 651 83 390 142 648 152 659 8 9 22
17 31 17 9 0 82 -22 162 -49z m-2294 -419 c7 -4 176 -234 377 -511 276 -380
366 -510 366 -532 0 -25 -14 -38 -117 -108 -65 -44 -128 -81 -139 -81 -20 0
-1011 565 -1046 597 -29 26 -21 50 39 136 109 155 257 318 402 443 72 62 93
72 118 56z m1606 -1029 c6 -11 -95 -483 -103 -483 -8 0 -109 472 -103 483 2 4
49 7 103 7 54 0 101 -3 103 -7z m-317 -273 c29 -135 52 -248 51 -252 -1 -3
-75 93 -163 215 l-162 222 97 32 c53 17 103 30 110 30 11 -2 29 -69 67 -247z
m601 217 l101 -32 -161 -222 c-89 -121 -163 -220 -165 -219 -2 3 95 470 103
494 6 16 6 16 122 -21z m-872 -307 c82 -113 160 -221 174 -240 l26 -34 -50 29
c-27 16 -157 90 -288 166 l-237 137 94 67 c53 37 101 74 107 81 7 8 15 11 19
7 4 -4 74 -100 155 -213z m1298 91 l48 -33 -268 -155 c-338 -195 -309 -180
-292 -156 8 11 88 121 178 246 l164 226 61 -48 c34 -26 83 -62 109 -80z"/>
</g>
</svg>
